<svg xmlns="http://www.w3.org/2000/svg" viewBox="0 0 960 720" role="img" aria-labelledby="title">
  <title id="title">Beautiverse preview</title>
  <defs>
    <linearGradient id="bg" x1="0" y1="0" x2="1" y2="1">
      <stop offset="0%" stop-color="#F6DDE7" />
      <stop offset="55%" stop-color="#F2CCDC" />
      <stop offset="100%" stop-color="#C982A2" />
    </linearGradient>
    <linearGradient id="card" x1="0" y1="0" x2="0" y2="1">
      <stop offset="0%" stop-color="#FFFFFF" />
      <stop offset="100%" stop-color="#FFF0F5" />
    </linearGradient>
  </defs>
  <rect width="960" height="720" fill="url(#bg)" />
  <circle cx="850" cy="600" r="180" fill="#A63D68" opacity="0.12" />
  <circle cx="100" cy="120" r="130" fill="#FFFFFF" opacity="0.35" />
  <rect x="100" y="120" width="760" height="480" rx="22" fill="url(#card)" stroke="#A63D68" stroke-opacity="0.25" stroke-width="3" />
  <rect x="140" y="160" width="220" height="24" rx="8" fill="#A63D68" opacity="0.8" />
  <circle cx="740" cy="172" r="20" fill="#A63D68" opacity="0.65" />
  <rect x="140" y="220" width="200" height="200" rx="16" fill="#F6DDE7" />
  <rect x="360" y="220" width="200" height="200" rx="16" fill="#F6DDE7" />
  <rect x="580" y="220" width="200" height="200" rx="16" fill="#F6DDE7" />
  <circle cx="240" cy="290" r="34" fill="#A63D68" opacity="0.5" />
  <circle cx="460" cy="290" r="34" fill="#A63D68" opacity="0.5" />
  <circle cx="680" cy="290" r="34" fill="#A63D68" opacity="0.5" />
  <rect x="160" y="350" width="160" height="14" rx="7" fill="#A63D68" opacity="0.5" />
  <rect x="380" y="350" width="160" height="14" rx="7" fill="#A63D68" opacity="0.5" />
  <rect x="600" y="350" width="160" height="14" rx="7" fill="#A63D68" opacity="0.5" />
  <rect x="140" y="460" width="640" height="100" rx="16" fill="#F6DDE7" />
  <rect x="170" y="486" width="300" height="16" rx="8" fill="#A63D68" opacity="0.55" />
  <rect x="170" y="514" width="200" height="14" rx="7" fill="#C982A2" opacity="0.6" />
</svg>
